HIERARCHY
ROOT root
{
	OFFSET 0.000000 0.000000 0.000000
	CHANNELS 6 Xposition Yposition Zposition Zrotation Yrotation Xrotation
	JOINT lhip
	{
		OFFSET 0.058581 -0.082280 -0.017664
		CHANNELS 3 Zrotation Yrotation Xrotation
		JOINT lknee
		{
			OFFSET 0.043451 -0.386469 0.008037
			CHANNELS 3 Zrotation Yrotation Xrotation
			JOINT lankle
			{
				OFFSET -0.014790 -0.426874 -0.037428
				CHANNELS 3 Zrotation Yrotation Xrotation
				JOINT ltoe
				{
					OFFSET 0.041054 -0.060286 0.122042
					CHANNELS 3 Zrotation Yrotation Xrotation
					End Site
					{
						OFFSET 0.000000 0.000000 0.000000
					}
				}
			}
		}
	}
	JOINT rhip
	{
		OFFSET -0.060310 -0.090513 -0.013543
		CHANNELS 3 Zrotation Yrotation Xrotation
		JOINT rknee
		{
			OFFSET -0.043257 -0.383688 -0.004843
			CHANNELS 3 Zrotation Yrotation Xrotation
			JOINT rankle
			{
				OFFSET 0.019056 -0.420046 -0.034562
				CHANNELS 3 Zrotation Yrotation Xrotation
				JOINT rtoe
				{
					OFFSET -0.034840 -0.062106 0.130323
					CHANNELS 3 Zrotation Yrotation Xrotation
					End Site
					{
						OFFSET 0.000000 0.000000 0.000000
					}
				}
			}
		}
	}
	JOINT lowerback
	{
		OFFSET 0.004439 0.124404 -0.038385
		CHANNELS 3 Zrotation Yrotation Xrotation
		JOINT upperback
		{
			OFFSET 0.004488 0.137956 0.026820
			CHANNELS 3 Zrotation Yrotation Xrotation
			JOINT chest
			{
				OFFSET -0.002265 0.056032 0.002855
				CHANNELS 3 Zrotation Yrotation Xrotation
				JOINT lowerneck
				{
					OFFSET -0.013390 0.211636 -0.033468
					CHANNELS 3 Zrotation Yrotation Xrotation
					JOINT upperneck
					{
						OFFSET 0.010113 0.088937 0.050410
						CHANNELS 3 Zrotation Yrotation Xrotation
						End Site
						{
							OFFSET 0.000000 0.000000 0.000000
						}
					}
				}
				JOINT lclavicle
				{
					OFFSET 0.071702 0.114000 -0.018898
					CHANNELS 3 Zrotation Yrotation Xrotation
					JOINT lshoulder
					{
						OFFSET 0.122921 0.045205 -0.019046
						CHANNELS 3 Zrotation Yrotation Xrotation
						JOINT lelbow
						{
							OFFSET 0.255332 -0.015649 -0.022946
							CHANNELS 3 Zrotation Yrotation Xrotation
							JOINT lwrist
							{
								OFFSET 0.265709 0.012698 -0.007375
								CHANNELS 3 Zrotation Yrotation Xrotation
								End Site
								{
									OFFSET 0.000000 0.000000 0.000000
								}
							}
						}
					}
				}
				JOINT rclavicle
				{
					OFFSET -0.082954 0.112472 -0.023707
					CHANNELS 3 Zrotation Yrotation Xrotation
					JOINT rshoulder
					{
						OFFSET -0.113228 0.046853 -0.008472
						CHANNELS 3 Zrotation Yrotation Xrotation
						JOINT relbow
						{
							OFFSET -0.260127 -0.014369 -0.031269
							CHANNELS 3 Zrotation Yrotation Xrotation
							JOINT rwrist
							{
								OFFSET -0.269108 0.006794 -0.006027
								CHANNELS 3 Zrotation Yrotation Xrotation
								End Site
								{
									OFFSET 0.000000 0.000000 0.000000
								}
							}
						}
					}
				}
			}
		}
	}
}
MOTION
Frames: 5
Frame Time: 0.033333
-0.596760 0.500405 1.003188 -113.102971 0.760257 86.888348 2.166550 4.138427 13.045843 -4.321315 -6.649275 1.987395 -0.203011 10.570988 -12.226342 0.000000 -0.000000 0.000000 -1.187114 -1.690886 -18.819536 -1.636968 -9.383251 12.179964 4.217568 -11.388068 -7.291866 0.000000 -0.000000 0.000000 -0.603050 -4.151721 9.783885 1.958909 -1.333194 -2.750451 1.000871 -2.530431 1.827523 -1.078130 2.320884 1.438613 0.181915 -2.692539 6.962820 -17.289310 4.719760 3.794054 -45.696180 -11.348685 12.943553 -0.868352 -63.504775 18.959804 6.460736 -13.179506 -15.551595 21.608351 -4.685577 3.107567 52.528362 -4.480379 17.426556 1.284281 34.113777 13.977455 2.712475 6.230923 -7.455706 
-0.622323 0.515811 0.996635 -113.076060 0.633938 87.777506 2.260719 4.519674 14.447445 -3.823191 -6.507393 1.188776 -0.781462 10.422545 -13.307289 0.000000 -0.000000 0.000000 -1.317956 -1.542157 -19.478545 -1.717505 -7.471756 3.798897 6.003233 -9.739139 -7.082671 0.000000 -0.000000 0.000000 -0.396632 -4.365239 8.696641 1.931501 -1.516062 -2.480492 1.017483 -2.514744 1.701455 -1.007480 2.846869 1.552657 0.035697 -3.047648 7.190727 -17.175891 5.063190 3.878619 -46.259023 -11.847296 13.534807 -0.574741 -65.161848 19.548100 6.600940 -13.616798 -15.859271 21.670691 -5.088940 3.553384 52.710728 -3.792579 17.555902 0.696972 34.436555 13.634102 1.882626 6.321476 -8.016863 
-0.647866 0.533418 0.990329 -112.674613 0.496413 88.510812 2.826343 5.285804 15.058990 -3.654619 -7.452457 2.384500 -1.388906 10.136348 -13.767730 0.000000 -0.000000 0.000000 -1.552156 -1.425227 -20.495659 -1.964858 -6.478834 -0.353020 6.417732 -8.827085 -6.154165 0.000000 -0.000000 0.000000 -0.500441 -4.976590 8.337637 1.976822 -1.603384 -2.822236 1.141672 -2.528222 1.701528 -0.798928 2.660457 1.060365 -0.084131 -3.070042 7.667505 -17.133963 5.679149 3.776645 -46.709789 -12.034745 13.953324 -2.617828 -66.118438 22.442697 6.975188 -13.859579 -15.616318 21.713080 -5.584798 3.312333 52.666831 -3.397873 17.653602 1.076252 34.610920 14.045762 1.918959 6.129644 -7.895512 
-0.682046 0.559146 0.985378 -111.667897 0.543040 88.152638 4.245219 5.173563 16.968045 -3.815615 -9.109804 4.585655 -3.128291 9.515170 -14.030830 0.000000 -0.000000 0.000000 -2.042357 -1.416588 -21.224504 -1.627504 -9.969391 2.053078 6.127113 -10.780276 -6.444186 0.000000 -0.000000 0.000000 -0.575188 -5.698496 8.736766 2.128466 -1.651021 -2.531894 1.217655 -2.896465 1.578388 -0.381199 2.648421 0.567654 -0.292707 -3.550656 7.758229 -17.356195 5.796260 4.326135 -47.276932 -12.097013 13.896441 -4.786364 -65.830316 25.366200 6.386864 -14.026622 -15.290152 22.171259 -5.494936 3.273911 52.653907 -3.305665 17.286692 0.737729 34.669227 13.769857 1.764966 6.164574 -7.980958 
-0.703348 0.576411 0.982811 -111.214532 0.615143 88.142320 5.069035 5.002819 17.617420 -3.774137 -10.189200 6.567693 -3.870738 9.244463 -13.221556 0.000000 -0.000000 0.000000 -1.970262 -0.992570 -21.653852 -1.943059 -11.114076 5.286537 5.102104 -11.887328 -6.708163 0.000000 -0.000000 0.000000 -0.582038 -6.191325 8.437563 2.252494 -1.620863 -2.068461 1.180897 -2.902884 1.448504 -0.444556 2.330441 0.674402 -0.379977 -3.480880 7.561403 -17.664338 5.693689 4.521060 -47.565054 -11.720336 14.036475 -6.018808 -64.847548 27.054845 6.071247 -13.561337 -15.097216 22.221600 -5.423520 3.267689 52.975815 -3.415593 17.092053 0.377392 34.538921 13.737241 1.886353 5.960830 -8.339359 
